<svg width="74" height="58" viewBox="0 0 74 58" fill="none" xmlns="http://www.w3.org/2000/svg">
<path d="M6.07312 55L6.07312 56.2165L7.24114 55.8764C15.9092 53.3528 22.6632 49.0217 27.4394 42.8532C32.1978 36.7768 34.5906 30.0033 34.5906 22.5595C34.5906 16.4961 32.6826 11.3763 28.8401 7.26554C25.0309 3.19033 20.6812 1.08715 15.814 1.08715C11.7244 1.08715 8.24212 2.40226 5.42938 5.05101C2.56186 7.68593 1.08789 10.8487 1.08789 14.501C1.08789 17.7081 2.26064 20.4271 4.58736 22.5974C6.82729 24.8207 9.51071 25.9518 12.5944 25.9518C14.2301 25.9518 15.8582 25.6556 17.4747 25.0709C18.9848 24.5246 19.9996 24.2988 20.5915 24.2988C21.0292 24.2988 21.5898 24.5446 22.2639 25.3982C22.8438 26.1323 23.2099 27.3385 23.2099 29.1715C23.2099 33.2752 22.1484 36.8073 20.0511 39.8063C17.9591 42.7978 13.5093 46.2964 6.53318 50.2814L6.07312 50.5442L6.07312 51.0741L6.07312 55Z" stroke="white" stroke-width="1.82568"/>
<path d="M44.5048 55L44.5048 56.2165L45.6728 55.8764C54.3409 53.3528 61.0948 49.0217 65.8711 42.8532C70.6294 36.7768 73.0222 30.0033 73.0222 22.5595C73.0222 16.4961 71.1142 11.3763 67.2717 7.26554C63.4625 3.19033 59.1129 1.08715 54.2456 1.08715C50.156 1.08715 46.6738 2.40226 43.861 5.05101C40.9935 7.68593 39.5195 10.8487 39.5195 14.501C39.5195 17.7081 40.6923 20.4271 43.019 22.5974C45.2589 24.8207 47.9423 25.9518 51.026 25.9518C52.6617 25.9518 54.2898 25.6556 55.9063 25.0709C57.4165 24.5246 58.4313 24.2988 59.0231 24.2988C59.4608 24.2988 60.0214 24.5446 60.6956 25.3982C61.2754 26.1323 61.6415 27.3385 61.6415 29.1715C61.6415 33.2752 60.58 36.8073 58.4828 39.8063C56.3908 42.7978 51.9409 46.2964 44.9648 50.2814L44.5048 50.5442L44.5048 51.0741L44.5048 55Z" stroke="white" stroke-width="1.82568"/>
</svg>
