<svg width="108" height="21" viewBox="0 0 108 21" fill="none" xmlns="http://www.w3.org/2000/svg">
<path fill-rule="evenodd" clip-rule="evenodd" d="M20 10.25C20 4.727 15.523 0.25 10 0.25C4.477 0.25 0 4.727 0 10.25C0 15.241 3.657 19.378 8.438 20.128V13.141H5.898V10.25H8.438V8.047C8.438 5.541 9.93 4.157 12.215 4.157C13.309 4.157 14.453 4.352 14.453 4.352V6.812H13.193C11.95 6.812 11.563 7.583 11.563 8.374V10.25H14.336L13.893 13.14H11.563V20.128C16.343 19.378 20 15.241 20 10.25Z" fill="#FEFEFE"/>
<path fill-rule="evenodd" clip-rule="evenodd" d="M54.315 0.25C56.745 0.25 57.099 0.263 58.123 0.31C59.187 0.359 59.914 0.528 60.55 0.775C61.2175 1.02587 61.8222 1.41936 62.322 1.928C62.8306 2.42777 63.2241 3.0325 63.475 3.7C63.722 4.336 63.891 5.063 63.94 6.127C63.988 7.194 64 7.534 64 10.25V10.33C64 12.973 63.988 13.317 63.94 14.373C63.891 15.437 63.722 16.164 63.475 16.8C63.2241 17.4675 62.8306 18.0722 62.322 18.572C61.8222 19.0806 61.2175 19.4741 60.55 19.725C59.914 19.972 59.187 20.141 58.123 20.19C57.056 20.238 56.716 20.25 54 20.25H53.92C51.277 20.25 50.933 20.238 49.877 20.19C48.813 20.141 48.086 19.972 47.45 19.725C46.7825 19.4741 46.1778 19.0806 45.678 18.572C45.1694 18.0722 44.7759 17.4675 44.525 16.8C44.278 16.164 44.109 15.437 44.06 14.373C44.013 13.349 44 12.994 44 10.565V9.935C44 7.505 44.013 7.151 44.06 6.127C44.109 5.063 44.278 4.336 44.525 3.7C44.7759 3.0325 45.1694 2.42777 45.678 1.928C46.1778 1.41936 46.7825 1.02587 47.45 0.775C48.086 0.528 48.813 0.359 49.877 0.31C50.901 0.263 51.256 0.25 53.685 0.25H54.315ZM54.234 2.052H53.766C51.31 2.052 50.982 2.063 49.959 2.11C48.984 2.155 48.455 2.317 48.102 2.454C47.635 2.636 47.302 2.852 46.952 3.202C46.602 3.552 46.386 3.885 46.204 4.352C46.067 4.705 45.904 5.234 45.86 6.209C45.813 7.232 45.802 7.56 45.802 10.016V10.484C45.802 12.94 45.813 13.268 45.86 14.291C45.905 15.266 46.067 15.795 46.204 16.148C46.386 16.614 46.603 16.948 46.952 17.298C47.302 17.648 47.635 17.864 48.102 18.046C48.455 18.183 48.984 18.346 49.959 18.39C51.013 18.438 51.329 18.448 54 18.448H54.08C56.677 18.448 56.997 18.438 58.04 18.39C59.016 18.345 59.545 18.183 59.898 18.046C60.364 17.864 60.698 17.648 61.048 17.298C61.398 16.948 61.614 16.615 61.796 16.148C61.933 15.795 62.096 15.266 62.14 14.291C62.188 13.236 62.198 12.921 62.198 10.25V10.17C62.198 7.573 62.188 7.253 62.14 6.21C62.095 5.234 61.933 4.705 61.796 4.352C61.6358 3.91757 61.3802 3.5246 61.048 3.202C60.7254 2.86986 60.3324 2.61426 59.898 2.454C59.545 2.317 59.016 2.154 58.041 2.11C57.018 2.063 56.69 2.052 54.234 2.052ZM54 5.115C54.6743 5.115 55.3421 5.24782 55.9651 5.50588C56.5881 5.76394 57.1542 6.14218 57.631 6.61901C58.1078 7.09584 58.4861 7.66191 58.7441 8.28492C59.0022 8.90793 59.135 9.57566 59.135 10.25C59.135 10.9243 59.0022 11.5921 58.7441 12.2151C58.4861 12.8381 58.1078 13.4042 57.631 13.881C57.1542 14.3578 56.5881 14.7361 55.9651 14.9941C55.3421 15.2522 54.6743 15.385 54 15.385C52.6381 15.385 51.332 14.844 50.369 13.881C49.406 12.918 48.865 11.6119 48.865 10.25C48.865 8.88811 49.406 7.58201 50.369 6.61901C51.332 5.65601 52.6381 5.115 54 5.115ZM54 6.917C53.116 6.917 52.2683 7.26815 51.6432 7.89321C51.0182 8.51827 50.667 9.36603 50.667 10.25C50.667 11.134 51.0182 11.9817 51.6432 12.6068C52.2683 13.2318 53.116 13.583 54 13.583C54.884 13.583 55.7317 13.2318 56.3568 12.6068C56.9818 11.9817 57.333 11.134 57.333 10.25C57.333 9.36603 56.9818 8.51827 56.3568 7.89321C55.7317 7.26815 54.884 6.917 54 6.917ZM59.338 3.712C59.6563 3.712 59.9615 3.83843 60.1865 4.06347C60.4116 4.28852 60.538 4.59374 60.538 4.912C60.538 5.23026 60.4116 5.53548 60.1865 5.76053C59.9615 5.98557 59.6563 6.112 59.338 6.112C59.0197 6.112 58.7145 5.98557 58.4895 5.76053C58.2644 5.53548 58.138 5.23026 58.138 4.912C58.138 4.59374 58.2644 4.28852 58.4895 4.06347C58.7145 3.83843 59.0197 3.712 59.338 3.712Z" fill="#FEFEFE"/>
<path d="M94.29 16.5034C101.837 16.5034 105.965 10.2504 105.965 4.8284C105.965 4.6504 105.965 4.4734 105.953 4.2984C106.756 3.71693 107.449 2.99701 108 2.1724C107.251 2.5044 106.457 2.72216 105.643 2.8184C106.5 2.30546 107.141 1.49875 107.447 0.548398C106.642 1.02628 105.761 1.36313 104.842 1.5444C104.223 0.886163 103.405 0.450233 102.514 0.304103C101.622 0.157974 100.708 0.309797 99.9111 0.736067C99.1147 1.16234 98.4811 1.83927 98.1083 2.66206C97.7355 3.48485 97.6444 4.40758 97.849 5.2874C96.2176 5.20564 94.6216 4.78172 93.1646 4.04317C91.7077 3.30461 90.4223 2.26792 89.392 1.0004C88.8673 1.9036 88.7066 2.97282 88.9425 3.99036C89.1785 5.00791 89.7934 5.89728 90.662 6.4774C90.0093 6.4585 89.3706 6.2829 88.8 5.9654V6.0174C88.8004 6.96469 89.1284 7.8827 89.7284 8.61576C90.3284 9.34881 91.1635 9.85179 92.092 10.0394C91.4878 10.2041 90.8539 10.2281 90.239 10.1094C90.5012 10.9249 91.0117 11.638 91.6991 12.149C92.3866 12.66 93.2166 12.9434 94.073 12.9594C93.2221 13.628 92.2478 14.1222 91.2057 14.4139C90.1637 14.7056 89.0743 14.789 88 14.6594C89.8766 15.8637 92.0602 16.5025 94.29 16.4994" fill="#FEFEFE"/>
</svg>
