<svg width="20" height="21" viewBox="0 0 20 21" fill="none" xmlns="http://www.w3.org/2000/svg">
<path fill-rule="evenodd" clip-rule="evenodd" d="M10.315 0.25C12.745 0.25 13.099 0.263 14.123 0.31C15.187 0.359 15.914 0.528 16.55 0.775C17.2175 1.02587 17.8222 1.41936 18.322 1.928C18.8306 2.42777 19.2241 3.0325 19.475 3.7C19.722 4.336 19.891 5.063 19.94 6.127C19.988 7.194 20 7.534 20 10.25V10.33C20 12.973 19.988 13.317 19.94 14.373C19.891 15.437 19.722 16.164 19.475 16.8C19.2241 17.4675 18.8306 18.0722 18.322 18.572C17.8222 19.0806 17.2175 19.4741 16.55 19.725C15.914 19.972 15.187 20.141 14.123 20.19C13.056 20.238 12.716 20.25 10 20.25H9.92C7.277 20.25 6.933 20.238 5.877 20.19C4.813 20.141 4.086 19.972 3.45 19.725C2.7825 19.4741 2.17777 19.0806 1.678 18.572C1.16936 18.0722 0.775874 17.4675 0.525 16.8C0.278 16.164 0.109 15.437 0.0599999 14.373C0.0129999 13.349 0 12.994 0 10.565V9.935C0 7.505 0.0129999 7.151 0.0599999 6.127C0.109 5.063 0.278 4.336 0.525 3.7C0.775874 3.0325 1.16936 2.42777 1.678 1.928C2.17777 1.41936 2.7825 1.02587 3.45 0.775C4.086 0.528 4.813 0.359 5.877 0.31C6.901 0.263 7.256 0.25 9.685 0.25H10.315ZM10.234 2.052H9.766C7.31 2.052 6.982 2.063 5.959 2.11C4.984 2.155 4.455 2.317 4.102 2.454C3.635 2.636 3.302 2.852 2.952 3.202C2.602 3.552 2.386 3.885 2.204 4.352C2.067 4.705 1.904 5.234 1.86 6.209C1.813 7.232 1.802 7.56 1.802 10.016V10.484C1.802 12.94 1.813 13.268 1.86 14.291C1.905 15.266 2.067 15.795 2.204 16.148C2.386 16.614 2.603 16.948 2.952 17.298C3.302 17.648 3.635 17.864 4.102 18.046C4.455 18.183 4.984 18.346 5.959 18.39C7.013 18.438 7.329 18.448 10 18.448H10.08C12.677 18.448 12.997 18.438 14.04 18.39C15.016 18.345 15.545 18.183 15.898 18.046C16.364 17.864 16.698 17.648 17.048 17.298C17.398 16.948 17.614 16.615 17.796 16.148C17.933 15.795 18.096 15.266 18.14 14.291C18.188 13.236 18.198 12.921 18.198 10.25V10.17C18.198 7.573 18.188 7.253 18.14 6.21C18.095 5.234 17.933 4.705 17.796 4.352C17.6358 3.91757 17.3802 3.5246 17.048 3.202C16.7254 2.86986 16.3324 2.61426 15.898 2.454C15.545 2.317 15.016 2.154 14.041 2.11C13.018 2.063 12.69 2.052 10.234 2.052ZM10 5.115C10.6743 5.115 11.3421 5.24782 11.9651 5.50588C12.5881 5.76394 13.1542 6.14218 13.631 6.61901C14.1078 7.09584 14.4861 7.66191 14.7441 8.28492C15.0022 8.90793 15.135 9.57566 15.135 10.25C15.135 10.9243 15.0022 11.5921 14.7441 12.2151C14.4861 12.8381 14.1078 13.4042 13.631 13.881C13.1542 14.3578 12.5881 14.7361 11.9651 14.9941C11.3421 15.2522 10.6743 15.385 10 15.385C8.63811 15.385 7.33201 14.844 6.36901 13.881C5.40601 12.918 4.865 11.6119 4.865 10.25C4.865 8.88811 5.40601 7.58201 6.36901 6.61901C7.33201 5.65601 8.63811 5.115 10 5.115ZM10 6.917C9.11603 6.917 8.26827 7.26815 7.64321 7.89321C7.01815 8.51827 6.667 9.36603 6.667 10.25C6.667 11.134 7.01815 11.9817 7.64321 12.6068C8.26827 13.2318 9.11603 13.583 10 13.583C10.884 13.583 11.7317 13.2318 12.3568 12.6068C12.9818 11.9817 13.333 11.134 13.333 10.25C13.333 9.36603 12.9818 8.51827 12.3568 7.89321C11.7317 7.26815 10.884 6.917 10 6.917ZM15.338 3.712C15.6563 3.712 15.9615 3.83843 16.1865 4.06347C16.4116 4.28852 16.538 4.59374 16.538 4.912C16.538 5.23026 16.4116 5.53548 16.1865 5.76053C15.9615 5.98557 15.6563 6.112 15.338 6.112C15.0197 6.112 14.7145 5.98557 14.4895 5.76053C14.2644 5.53548 14.138 5.23026 14.138 4.912C14.138 4.59374 14.2644 4.28852 14.4895 4.06347C14.7145 3.83843 15.0197 3.712 15.338 3.712Z" fill="#FEFEFE"/>
</svg>
