<svg width="20" height="17" viewBox="0 0 20 17" fill="none" xmlns="http://www.w3.org/2000/svg">
<path d="M6.29 16.5034C13.837 16.5034 17.965 10.2504 17.965 4.8284C17.965 4.6504 17.965 4.4734 17.953 4.2984C18.7562 3.71693 19.4493 2.99701 20 2.1724C19.2511 2.5044 18.4566 2.72216 17.643 2.8184C18.4996 2.30546 19.1408 1.49875 19.447 0.548398C18.6417 1.02628 17.7607 1.36313 16.842 1.5444C16.2234 0.886163 15.405 0.450233 14.5136 0.304103C13.6222 0.157974 12.7075 0.309797 11.9111 0.736067C11.1147 1.16234 10.4811 1.83927 10.1083 2.66206C9.7355 3.48485 9.64437 4.40758 9.849 5.2874C8.21759 5.20564 6.6216 4.78172 5.16465 4.04317C3.70769 3.30461 2.42233 2.26792 1.392 1.0004C0.867318 1.9036 0.706589 2.97282 0.942536 3.99036C1.17848 5.00791 1.79337 5.89728 2.662 6.4774C2.00926 6.4585 1.37063 6.2829 0.8 5.9654V6.0174C0.800389 6.96469 1.1284 7.8827 1.7284 8.61576C2.3284 9.34881 3.16347 9.85179 4.092 10.0394C3.48781 10.2041 2.85389 10.2281 2.239 10.1094C2.50116 10.9249 3.01168 11.638 3.69913 12.149C4.38658 12.66 5.21657 12.9434 6.073 12.9594C5.22212 13.628 4.24779 14.1222 3.20573 14.4139C2.16367 14.7056 1.07432 14.789 0 14.6594C1.8766 15.8637 4.06019 16.5025 6.29 16.4994" fill="#FEFEFE"/>
</svg>
