<svg width="76" height="75" viewBox="0 0 76 75" fill="none" xmlns="http://www.w3.org/2000/svg">
<g clip-path="url(#clip0_99_97)">
<path d="M65.0128 47.1233H33.1229C33.1229 48.4739 32.029 49.5687 30.6797 49.5687V63.6658C32.0291 63.6658 33.1229 64.7606 33.1229 66.1112H65.0127C65.0127 64.7606 66.1066 63.6658 67.4559 63.6658V49.5687C66.1066 49.5687 65.0128 48.4739 65.0128 47.1233Z" fill="#B3C7E0"/>
<path d="M16.2227 33.7066H27.4439C28.2528 33.7066 28.9088 33.0507 28.9088 32.2418C28.9088 31.4329 28.2528 30.7769 27.4439 30.7769H16.2227C15.4138 30.7769 14.7578 31.4329 14.7578 32.2418C14.7578 33.0507 15.4138 33.7066 16.2227 33.7066Z" fill="#1F4D9B"/>
<path d="M16.2227 25.41H27.4439C28.2528 25.41 28.9088 24.7541 28.9088 23.9452C28.9088 23.1363 28.2528 22.4804 27.4439 22.4804H16.2227C15.4138 22.4804 14.7578 23.1363 14.7578 23.9452C14.7578 24.7541 15.4138 25.41 16.2227 25.41Z" fill="#1F4D9B"/>
<path d="M41.2246 25.41H52.4459C53.2548 25.41 53.9107 24.7541 53.9107 23.9452C53.9107 23.1363 53.2548 22.4804 52.4459 22.4804H41.2246C40.4157 22.4804 39.7598 23.1363 39.7598 23.9452C39.7598 24.7541 40.4156 25.41 41.2246 25.41Z" fill="#1F4D9B"/>
<path d="M16.2227 17.1135H27.4439C28.2528 17.1135 28.9088 16.4575 28.9088 15.6486C28.9088 14.8397 28.2528 14.1838 27.4439 14.1838H16.2227C15.4138 14.1838 14.7578 14.8397 14.7578 15.6486C14.7578 16.4575 15.4138 17.1135 16.2227 17.1135Z" fill="#1F4D9B"/>
<path d="M41.2246 17.1135H52.4459C53.2548 17.1135 53.9107 16.4575 53.9107 15.6486C53.9107 14.8397 53.2548 14.1838 52.4459 14.1838H41.2246C40.4157 14.1838 39.7598 14.8397 39.7598 15.6486C39.7598 16.4575 40.4156 17.1135 41.2246 17.1135Z" fill="#1F4D9B"/>
<path d="M41.2246 33.7066H52.4459C53.2548 33.7066 53.9107 33.0507 53.9107 32.2418C53.9107 31.4329 53.2548 30.7769 52.4459 30.7769H41.2246C40.4157 30.7769 39.7598 31.4329 39.7598 32.2418C39.7598 33.0507 40.4156 33.7066 41.2246 33.7066Z" fill="#1F4D9B"/>
<path d="M69.5776 39.0737H68.1683V11.765C68.1683 11.3386 67.9824 10.9333 67.6594 10.6551L60.8973 4.83105V4.75209C60.8973 2.59453 59.143 0.839203 56.9867 0.839203H38.8886C37.4223 0.839203 36.0642 1.6352 35.3445 2.9165C35.1636 3.23847 34.7952 3.43857 34.3832 3.43857H34.2856C33.8797 3.43857 33.5022 3.23364 33.3241 2.91635C32.6041 1.6352 31.2459 0.839203 29.7799 0.839203H11.6816C9.5252 0.839203 7.77105 2.59438 7.77105 4.75209V5.08754L1.03379 10.6342C0.69585 10.9125 0.5 11.3273 0.5 11.765V50.9423C0.5 54.4559 3.35806 57.3145 6.8709 57.3145H22.6358V68.2383C22.6358 71.5039 25.2926 74.1606 28.5581 74.1606H69.5776C72.8432 74.1606 75.5 71.5039 75.5 68.2383V44.996C75.5 41.7305 72.8432 39.0737 69.5776 39.0737ZM65.2386 12.4367V39.0737H60.8973V8.69765L65.2386 12.4367ZM37.8988 4.35146C38.1006 3.99213 38.48 3.76889 38.8887 3.76889H56.9869C57.5277 3.76889 57.9677 4.20996 57.9677 4.75209V39.0737H35.7992V6.11923C36.6825 5.79741 37.4338 5.1788 37.8988 4.35146ZM11.6816 3.76889H29.7797C30.1886 3.76889 30.568 3.99213 30.77 4.35161C31.2346 5.1788 31.9861 5.79755 32.8695 6.11938V39.0738H16.2217C15.4128 39.0738 14.7569 39.7298 14.7569 40.5387C14.7569 41.3475 15.4128 42.0035 16.2217 42.0035H23.4491C22.9325 42.8823 22.6358 43.9052 22.6358 44.9962V47.2901H11.6816C11.1408 47.2901 10.7007 46.8491 10.7007 46.3071V5.78539C10.7007 5.78129 10.7007 5.77719 10.7007 5.77324V4.75224C10.7007 4.20995 11.1408 3.76889 11.6816 3.76889ZM6.8709 54.385C4.97334 54.385 3.42969 52.8407 3.42969 50.9424V12.4564L7.77105 8.88237V46.3069C7.77105 48.4645 9.52534 50.2197 11.6816 50.2197H22.6358V54.385H6.8709ZM72.5703 68.2384C72.5703 69.8886 71.2278 71.2311 69.5776 71.2311H28.5581C26.9079 71.2311 25.5655 69.8886 25.5655 68.2384V44.996C25.5655 43.3459 26.9079 42.0034 28.5581 42.0034H69.5776C71.2278 42.0034 72.5703 43.3459 72.5703 44.996V68.2384Z" fill="#1F4D9B"/>
<path d="M49.0679 51.599C46.3024 51.599 44.0527 53.8501 44.0527 56.6172C44.0527 59.3845 46.3024 61.6356 49.0679 61.6356C51.8334 61.6356 54.0831 59.3845 54.0831 56.6172C54.0831 53.8501 51.8334 51.599 49.0679 51.599ZM49.0679 58.7059C47.9179 58.7059 46.9824 57.769 46.9824 56.6172C46.9824 55.4657 47.918 54.5287 49.0679 54.5287C50.2178 54.5287 51.1534 55.4656 51.1534 56.6172C51.1534 57.7689 50.2178 58.7059 49.0679 58.7059Z" fill="#1F4D9B"/>
</g>
<defs>
<clipPath id="clip0_99_97">
<rect width="75" height="75" fill="white" transform="translate(0.5)"/>
</clipPath>
</defs>
</svg>
