<svg width="51" height="50" viewBox="0 0 51 50" fill="none" xmlns="http://www.w3.org/2000/svg">
<g clip-path="url(#clip0_99_85)">
<path d="M15.791 36.4846H34.8742V40.8615H15.791V36.4846Z" fill="#B3C7E0"/>
<path d="M2.49219 14.5783H17.3237V31.7802H2.49219V14.5783Z" fill="#B3C7E0"/>
<path d="M49.3574 30.8033H48.935C49.2942 29.0492 49.2022 27.4377 48.6605 26.1013C48.0898 24.6935 47.062 23.6432 45.6711 23.0384C47.4596 21.1361 46.982 17.8719 46.9605 17.7319C46.8958 17.3108 46.5655 16.9803 46.1445 16.9152C46.0148 16.895 43.195 16.4802 41.2728 17.8591V17.4794C41.2728 16.9402 40.8354 16.5029 40.2962 16.5029C39.7569 16.5029 39.3196 16.9402 39.3196 17.4794V22.8127C39.2807 22.8019 39.2403 22.7909 39.1987 22.7794C38.99 22.7223 38.7254 22.6777 38.43 22.647C36.7817 20.0886 33.9284 18.5179 30.8738 18.5179C28.028 18.5179 25.4868 19.8506 23.8388 21.9261V14.5775C23.8388 14.5697 23.8323 14.4658 23.8322 14.4654C23.8175 14.3368 23.7777 14.2159 23.718 14.1074L20.8971 8.77056V4.43481C20.8971 3.89556 20.4598 3.45825 19.9205 3.45825H6.34082C5.80156 3.45825 5.36426 3.89556 5.36426 4.43481V8.70796L1.68965 14.0226C1.68896 14.0236 1.68828 14.0247 1.6876 14.0256C1.59121 14.1659 1.53057 14.3325 1.51865 14.5125C1.51846 14.5156 1.51826 14.5187 1.51807 14.5218C1.51787 14.5252 1.51768 14.5286 1.51758 14.532C1.51729 14.5385 1.51699 14.545 1.5168 14.5515C1.5168 14.5532 1.5167 14.5547 1.5167 14.5564C1.5166 14.5625 1.5165 14.5685 1.5165 14.5745V14.578V30.8032H1.31055C0.771289 30.8032 0.333984 31.2405 0.333984 31.7797V45.5658C0.333984 46.105 0.771289 46.5423 1.31055 46.5423H49.3574C49.8967 46.5423 50.334 46.105 50.334 45.5658V31.7798C50.334 31.2405 49.8967 30.8033 49.3574 30.8033ZM41.2728 22.3801C41.2923 21.4905 41.4806 20.3381 42.1476 19.6694C42.8739 18.9409 44.1721 18.7817 45.0805 18.7917C45.0923 19.6343 44.9749 20.973 44.2074 21.7426C43.4805 22.4716 42.1796 22.6314 41.2728 22.6203V22.3801ZM38.6829 24.6632C38.8359 24.7052 38.97 24.7428 39.0889 24.7762C40.2059 25.09 40.3864 25.09 41.5034 24.7762C41.6223 24.7428 41.7563 24.7051 41.9093 24.6633C42.5024 24.5009 44.0347 24.5215 44.5533 24.6985C46.8158 25.471 47.6926 27.7403 46.9331 30.8033H33.6591C32.8999 27.7404 33.7766 25.471 36.0389 24.6985C36.5581 24.5214 38.0899 24.501 38.6829 24.6632ZM30.8739 20.471C32.836 20.471 34.6923 21.2999 36.0083 22.705C35.7853 22.7427 35.5813 22.7909 35.4079 22.8501C33.7693 23.4096 32.5673 24.5338 31.9319 26.1012C31.3902 27.4377 31.2981 29.0491 31.6574 30.8032H24.6405C24.1146 29.7974 23.8389 28.6756 23.8389 27.5282C23.8388 23.6369 26.9947 20.471 30.8739 20.471ZM19.9763 11.208L21.2415 13.6015H18.8626L19.9763 11.208ZM7.31738 5.41138H18.944V8.03618H7.31738V5.41138ZM6.85283 9.98931H18.3891L16.7083 13.6014H4.35537L6.85283 9.98931ZM3.46943 15.5545H21.8856V30.8032H3.46943V15.5545ZM48.3809 44.5893H2.28711V32.7564H48.3809V44.5893Z" fill="#1F4D9B"/>
</g>
<defs>
<clipPath id="clip0_99_85">
<rect width="50" height="50" fill="white" transform="translate(0.333984)"/>
</clipPath>
</defs>
</svg>
