<svg width="59" height="53" viewBox="0 0 59 53" fill="none" xmlns="http://www.w3.org/2000/svg">
<g clip-path="url(#clip0_99_114)" filter="url(#filter0_d_99_114)">
<path d="M41.5024 31.8912C48.7741 31.8912 54.6689 26.0251 54.6689 18.789C54.6689 11.5528 48.7741 5.68672 41.5024 5.68672C34.2308 5.68672 28.3359 11.5528 28.3359 18.789C28.3359 26.0251 34.2308 31.8912 41.5024 31.8912Z" fill="#B3C7E0"/>
<path d="M47.5924 15.5808H44.7106V12.6994C44.7106 12.4404 44.6077 12.192 44.4246 12.0089C44.2414 11.8258 43.9931 11.7229 43.7341 11.7229L39.2704 11.723C38.7311 11.723 38.2938 12.1602 38.2938 12.6995V15.5808H35.4121C34.8728 15.5808 34.4355 16.018 34.4355 16.5573V21.0205C34.4355 21.5599 34.8729 21.9971 35.4121 21.9971H38.2938V24.8784C38.2938 25.1374 38.3968 25.3858 38.5799 25.569C38.7631 25.7521 39.0114 25.855 39.2704 25.855H43.7341C44.2733 25.855 44.7106 25.4178 44.7106 24.8784V21.9972H47.5924C48.1316 21.9972 48.5689 21.56 48.5689 21.0206V16.5573C48.5689 16.018 48.1317 15.5808 47.5924 15.5808ZM46.6157 20.0441H43.7341C43.1948 20.0441 42.7575 20.4813 42.7575 21.0206L42.7574 23.902H40.247V21.0206C40.247 20.4813 39.8097 20.0441 39.2704 20.0441H36.3887L36.3888 17.5339H39.2704C39.8097 17.5339 40.247 17.0967 40.247 16.5573L40.2471 13.676H42.7575V16.5573C42.7575 17.0967 43.1948 17.5339 43.7341 17.5339H46.6158L46.6157 20.0441Z" fill="#1F4D9B"/>
<path d="M43.5992 38.6534C43.6918 38.3825 43.7454 38.0968 43.7555 37.8045C43.7559 37.7933 43.7561 37.7821 43.7561 37.7709V37.7784C43.7565 37.7555 43.7572 37.712 43.7572 37.702C43.7572 36.0701 42.4247 34.7425 40.787 34.7425H32.5481C31.7813 34.0829 29.7158 32.3189 27.5465 30.5732C21.79 25.9409 20.9448 25.9409 20.4399 25.9409H13.8059C13.7353 25.471 13.3298 25.1107 12.8402 25.1107H5.64453C5.10527 25.1107 4.66797 25.5479 4.66797 26.0872V35.6426C4.66797 36.1819 5.10527 36.6192 5.64453 36.6192H12.8402C13.3472 36.6192 13.764 36.2328 13.8121 35.7384C15.3433 35.787 16.096 36.5138 17.1576 38.0757C18.256 39.6919 19.2363 41.0133 20.0716 42.0031C21.4558 43.6435 22.3636 44.3133 23.203 44.3133H23.2073C26.6029 44.3039 40.5702 44.2899 42.7821 44.2899C43.4436 44.2899 44.0741 44.0107 44.5578 43.5035C45.1226 42.9115 45.4359 42.0575 45.3964 41.2193C45.3417 40.0647 44.6177 39.0929 43.5992 38.6534ZM41.8041 37.6955L41.8033 37.7432C41.7933 37.9913 41.6896 38.2255 41.5176 38.4018H33.6614C33.8669 37.8517 33.9113 37.2609 33.7987 36.6955H40.7869C41.3479 36.6955 41.8041 37.147 41.8041 37.6955ZM6.62109 27.0636H11.8623V34.6658H6.62109V27.0636ZM43.1444 42.1555C43.0298 42.2757 42.9079 42.3366 42.7821 42.3366C40.5817 42.3366 26.7502 42.3505 23.2585 42.3599C23.0864 42.2861 21.9519 41.6555 18.7729 36.9777C17.6975 35.3954 16.4285 33.8498 13.8167 33.7846V27.8939H20.3942C20.6206 27.9545 21.7935 28.4376 26.5195 32.2538C28.9979 34.2551 31.2922 36.2374 31.5561 36.4659C31.9826 36.9013 32.0196 37.575 31.6425 38.0519C31.6133 38.084 31.5546 38.1485 31.5261 38.1797C31.3984 38.3017 31.2496 38.3926 31.0833 38.4501C31.0728 38.4537 31.0624 38.4576 31.0521 38.4616C31.0452 38.4632 31.0382 38.4648 31.0308 38.4664C30.9781 38.4784 30.925 38.4905 30.8913 38.4982C30.6203 38.5321 30.2928 38.4962 29.7622 38.0867L24.9482 34.3224C24.5232 33.9901 23.9097 34.0652 23.5773 34.4901C23.2452 34.915 23.3202 35.5287 23.7451 35.861L28.5641 39.6292C29.2915 40.1905 29.9915 40.461 30.737 40.461C30.8922 40.461 31.0493 40.4492 31.2091 40.426C31.2487 40.4199 31.2487 40.4199 31.4641 40.371C31.4882 40.3655 31.5123 40.3601 31.5345 40.355H42.373C42.9395 40.355 43.4205 40.7842 43.4453 41.3117C43.4599 41.6175 43.3418 41.9486 43.1444 42.1555Z" fill="#1F4D9B"/>
</g>
<defs>
<filter id="filter0_d_99_114" x="0.667969" y="0" width="58" height="58" filterUnits="userSpaceOnUse" color-interpolation-filters="sRGB">
<feFlood flood-opacity="0" result="BackgroundImageFix"/>
<feColorMatrix in="SourceAlpha" type="matrix" values="0 0 0 0 0 0 0 0 0 0 0 0 0 0 0 0 0 0 127 0" result="hardAlpha"/>
<feOffset dy="4"/>
<feGaussianBlur stdDeviation="2"/>
<feComposite in2="hardAlpha" operator="out"/>
<feColorMatrix type="matrix" values="0 0 0 0 0 0 0 0 0 0 0 0 0 0 0 0 0 0 0.25 0"/>
<feBlend mode="normal" in2="BackgroundImageFix" result="effect1_dropShadow_99_114"/>
<feBlend mode="normal" in="SourceGraphic" in2="effect1_dropShadow_99_114" result="shape"/>
</filter>
<clipPath id="clip0_99_114">
<rect width="50" height="50" fill="white" transform="translate(4.66797)"/>
</clipPath>
</defs>
</svg>
