<svg width="24" height="25" viewBox="0 0 24 25" fill="none" xmlns="http://www.w3.org/2000/svg">
<g clip-path="url(#clip0_99_136)">
<path d="M20.1426 13.4235V21.5945H3.86031V13.4235H20.1426Z" fill="#1F4D9B"/>
<path d="M23.5312 6.87166H17.8495C17.8503 6.83102 17.8508 6.79038 17.8508 6.74974C17.8507 3.50913 15.2261 0.872742 12 0.872742C8.77388 0.872742 6.14925 3.50913 6.14925 6.74974C6.14925 6.79038 6.14972 6.83102 6.15056 6.87166H0.46875C0.209859 6.87166 0 7.08152 0 7.34041V11.3606C0 11.6194 0.209859 11.8293 0.46875 11.8293H1.32764V23.6566C1.32764 23.9155 1.5375 24.1253 1.79639 24.1253H22.2036C22.4625 24.1253 22.6724 23.9155 22.6724 23.6566V11.8293H23.5312C23.7901 11.8293 24 11.6194 24 11.3605V7.34041C24 7.08152 23.7901 6.87166 23.5312 6.87166ZM12 1.81024C14.7092 1.81024 16.9132 4.02607 16.9132 6.74974C16.9132 7.48877 16.748 8.22026 16.4333 8.88171H13.7634C13.8633 8.70204 13.922 8.51135 13.9455 8.32751C14.0522 7.49037 13.5069 6.68548 12.6193 6.3702C12.5428 6.34301 12.4702 6.31699 12.4012 6.29201V4.80574C12.5784 4.86162 12.7013 4.95302 12.7621 5.04007C12.9103 5.25232 13.2025 5.30426 13.4148 5.15599C13.627 5.00777 13.6789 4.71555 13.5307 4.5033C13.3124 4.19065 12.917 3.92951 12.4012 3.84387V3.74857C12.4012 3.48968 12.1913 3.27982 11.9325 3.27982C11.6736 3.27982 11.4637 3.48968 11.4637 3.74857V3.87959C11.3946 3.8951 11.3244 3.91357 11.2531 3.93513C10.6709 4.11143 10.231 4.67918 10.1837 5.31588C10.1369 5.94523 10.4705 6.49235 11.0761 6.77932C11.1614 6.81968 11.2945 6.87532 11.4637 6.9417V8.72332C11.23 8.65188 11.0159 8.53338 10.8762 8.3591C10.7143 8.15707 10.4192 8.12459 10.2173 8.28654C10.0357 8.43213 9.99113 8.68535 10.1017 8.88176H7.56666C7.25198 8.22026 7.08666 7.48877 7.08666 6.74979C7.08675 4.02607 9.29081 1.81024 12 1.81024ZM11.4637 5.92535C11.157 5.77413 11.1065 5.5489 11.1187 5.3854C11.1355 5.15904 11.2794 4.94332 11.4637 4.85609V5.92535ZM13.0155 8.20891C12.9788 8.49602 12.7583 8.69566 12.4012 8.7732V7.29157C12.8761 7.50045 13.0543 7.9046 13.0155 8.20891ZM21.7349 23.1878H2.26514V11.8293H21.7349V23.1878ZM23.0625 10.8918H0.9375V7.80916H6.24502C6.31172 8.17563 6.41288 8.53507 6.54689 8.88171H6.46195C6.20306 8.88171 5.9932 9.09157 5.9932 9.35046C5.9932 9.60935 6.20306 9.81921 6.46195 9.81921H17.5381C17.797 9.81921 18.0068 9.60935 18.0068 9.35046C18.0068 9.09157 17.797 8.88171 17.5381 8.88171H17.4532C17.5872 8.53502 17.6883 8.17563 17.755 7.80916H23.0625V10.8918Z" fill="#1F4D9B"/>
<path d="M11.7755 19.8948C11.8453 19.9328 11.9223 19.9517 11.9994 19.9517C12.076 19.9517 12.1527 19.933 12.2221 19.8954C12.5048 19.7427 13.9368 18.9438 14.3696 18.2097C14.592 17.8322 14.6913 17.4676 14.6913 17.0278C14.6913 16.0125 13.9697 15.2756 12.9757 15.2756C12.5343 15.2756 12.2195 15.417 11.9997 15.589C11.7802 15.417 11.4658 15.2756 11.0252 15.2756C10.0317 15.2756 9.31055 16.0125 9.31055 17.0278C9.31055 17.4672 9.40992 17.8317 9.63277 18.2097C10.0622 18.9384 11.493 19.7413 11.7755 19.8948ZM11.0252 16.2131C11.3666 16.2131 11.5099 16.3769 11.57 16.5144C11.6446 16.685 11.8132 16.7953 11.9994 16.7954H11.9995C12.1857 16.7954 12.3542 16.6851 12.4289 16.5145C12.4891 16.377 12.6328 16.2131 12.9757 16.2131C13.3518 16.2131 13.7538 16.4272 13.7538 17.0278C13.7538 17.298 13.6982 17.5025 13.5619 17.7337C13.3564 18.0824 12.5715 18.6136 12.0001 18.9451C11.4042 18.5972 10.6347 18.0634 10.4404 17.7337C10.3037 17.5019 10.248 17.2974 10.248 17.0278C10.248 16.4271 10.6495 16.2131 11.0252 16.2131Z" fill="#FEFEFE"/>
</g>
<defs>
<clipPath id="clip0_99_136">
<rect width="24" height="24" fill="white" transform="translate(0 0.5)"/>
</clipPath>
</defs>
</svg>
