<svg width="24" height="14" viewBox="0 0 24 14" fill="none" xmlns="http://www.w3.org/2000/svg">
<path d="M19.104 6.31569C20.7025 6.31569 22.0029 5.01125 22.0029 3.40784C22.0029 1.80444 20.7025 0.5 19.104 0.5C17.5056 0.5 16.2051 1.80444 16.2051 3.40784C16.2051 5.01125 17.5055 6.31569 19.104 6.31569ZM19.104 1.43755C20.1855 1.43755 21.0654 2.32142 21.0654 3.40789C21.0654 4.49436 20.1855 5.37823 19.104 5.37823C18.0225 5.37823 17.1426 4.49436 17.1426 3.40789C17.1426 2.32142 18.0225 1.43755 19.104 1.43755Z" fill="#FEFEFE"/>
<path d="M19.1048 7.38281C17.7409 7.38281 16.4722 7.93392 15.5504 8.91127C14.6577 7.97044 13.3962 7.38281 12 7.38281C10.6038 7.38281 9.34223 7.97039 8.44959 8.91127C7.52766 7.93402 6.25861 7.38281 4.89511 7.38281C2.19595 7.38281 0 9.57877 0 12.278V12.9225C0 13.1814 0.209859 13.3913 0.46875 13.3913H23.5312C23.7901 13.3913 24 13.1814 24 12.9225V12.278C24 9.57877 21.804 7.38281 19.1048 7.38281ZM0.9375 12.278C0.9375 10.0957 2.71289 8.32031 4.89516 8.32031C6.04533 8.32031 7.11253 8.80561 7.86459 9.66117C7.38366 10.4185 7.10489 11.3163 7.10489 12.278V12.4538H0.9375V12.278ZM8.04239 12.4538V12.278C8.04239 10.0957 9.81778 8.32031 12 8.32031C14.1822 8.32031 15.9576 10.0957 15.9576 12.278V12.4538H8.04239ZM23.0625 12.4538H16.8951V12.278C16.8951 11.3163 16.6163 10.4185 16.1354 9.66113C16.8874 8.80552 17.9543 8.32031 19.1049 8.32031C21.2871 8.32031 23.0625 10.0957 23.0625 12.278V12.4538Z" fill="white"/>
<path d="M4.89498 6.31569C6.49347 6.31569 7.79392 5.01125 7.79392 3.40784C7.79392 1.80444 6.49347 0.5 4.89498 0.5C3.2965 0.5 1.99609 1.80444 1.99609 3.40784C1.99609 5.01125 3.29655 6.31569 4.89498 6.31569ZM4.89498 1.43755C5.97653 1.43755 6.85642 2.32142 6.85642 3.40789C6.85642 4.49436 5.97653 5.37823 4.89498 5.37823C3.81348 5.37823 2.93359 4.49436 2.93359 3.40789C2.93359 2.32142 3.81348 1.43755 4.89498 1.43755Z" fill="#FEFEFE"/>
<path d="M12.0005 6.31564C13.599 6.31564 14.8994 5.0112 14.8994 3.4078C14.8994 1.80439 13.599 0.5 12.0005 0.5C10.402 0.5 9.10156 1.80444 9.10156 3.40784C9.10156 5.01125 10.402 6.31564 12.0005 6.31564ZM12.0005 1.4375C13.082 1.4375 13.9619 2.32137 13.9619 3.40784C13.9619 4.49431 13.082 5.37814 12.0005 5.37814C10.919 5.37814 10.0391 4.49427 10.0391 3.4078C10.0391 2.32133 10.919 1.4375 12.0005 1.4375Z" fill="#FEFEFE"/>
</svg>
